<svg width="160" height="48" viewBox="0 0 160 48" fill="none" xmlns="http://www.w3.org/2000/svg">
<path d="M0 24C0 10.7452 10.7452 0 24 0H136C149.255 0 160 10.7452 160 24C160 37.2548 149.255 48 136 48H24C10.7452 48 0 37.2548 0 24Z" fill="#2998E5"/>
<path fill-rule="evenodd" clip-rule="evenodd" d="M53.5 17.25C53.5 16.8358 53.8358 16.5 54.25 16.5H57.25C57.8467 16.5 58.419 16.7371 58.841 17.159C59.2629 17.581 59.5 18.1533 59.5 18.75V29.25C59.5 29.8467 59.2629 30.419 58.841 30.841C58.419 31.2629 57.8467 31.5 57.25 31.5H54.25C53.8358 31.5 53.5 31.1642 53.5 30.75C53.5 30.3358 53.8358 30 54.25 30H57.25C57.4489 30 57.6397 29.921 57.7803 29.7803C57.921 29.6397 58 29.4489 58 29.25V18.75C58 18.5511 57.921 18.3603 57.7803 18.2197C57.6397 18.079 57.4489 18 57.25 18H54.25C53.8358 18 53.5 17.6642 53.5 17.25Z" fill="white"/>
<path fill-rule="evenodd" clip-rule="evenodd" d="M49.9697 19.7197C50.2626 19.4268 50.7374 19.4268 51.0303 19.7197L54.7803 23.4697C55.0732 23.7626 55.0732 24.2374 54.7803 24.5303L51.0303 28.2803C50.7374 28.5732 50.2626 28.5732 49.9697 28.2803C49.6768 27.9874 49.6768 27.5126 49.9697 27.2197L53.1893 24L49.9697 20.7803C49.6768 20.4874 49.6768 20.0126 49.9697 19.7197Z" fill="white"/>
<path fill-rule="evenodd" clip-rule="evenodd" d="M44.5 24C44.5 23.5858 44.8358 23.25 45.25 23.25H54.25C54.6642 23.25 55 23.5858 55 24C55 24.4142 54.6642 24.75 54.25 24.75H45.25C44.8358 24.75 44.5 24.4142 44.5 24Z" fill="white"/>
<path d="M70.0114 30H77.4602V27.9716H72.4716V18.3636H70.0114V30ZM82.9872 30.1705C85.6349 30.1705 87.2827 28.358 87.2827 25.6705C87.2827 22.9659 85.6349 21.1591 82.9872 21.1591C80.3395 21.1591 78.6918 22.9659 78.6918 25.6705C78.6918 28.358 80.3395 30.1705 82.9872 30.1705ZM82.9986 28.2955C81.777 28.2955 81.152 27.1761 81.152 25.6534C81.152 24.1307 81.777 23.0057 82.9986 23.0057C84.1974 23.0057 84.8224 24.1307 84.8224 25.6534C84.8224 27.1761 84.1974 28.2955 82.9986 28.2955ZM92.7884 33.4545C95.2827 33.4545 97.0554 32.3182 97.0554 30.0852V21.2727H94.652V22.7386H94.5611C94.2372 22.0284 93.527 21.1591 92.0668 21.1591C90.152 21.1591 88.5327 22.6477 88.5327 25.6193C88.5327 28.5227 90.1065 29.875 92.0724 29.875C93.4645 29.875 94.2429 29.1761 94.5611 28.4545H94.6634V30.0511C94.6634 31.25 93.8963 31.7159 92.8452 31.7159C91.777 31.7159 91.2372 31.25 91.0384 30.7216L88.7997 31.0227C89.0895 32.3977 90.4361 33.4545 92.7884 33.4545ZM92.8395 28.0568C91.652 28.0568 91.0043 27.1136 91.0043 25.608C91.0043 24.125 91.6406 23.0852 92.8395 23.0852C94.0156 23.0852 94.6747 24.0795 94.6747 25.608C94.6747 27.1477 94.0043 28.0568 92.8395 28.0568ZM102.685 30H105.105V21.2727H102.685V30ZM103.901 20.1477C104.622 20.1477 105.213 19.5966 105.213 18.9205C105.213 18.25 104.622 17.6989 103.901 17.6989C103.185 17.6989 102.594 18.25 102.594 18.9205C102.594 19.5966 103.185 20.1477 103.901 20.1477ZM109.464 24.9545C109.47 23.8295 110.141 23.1705 111.118 23.1705C112.089 23.1705 112.675 23.8068 112.669 24.875V30H115.089V24.4432C115.089 22.4091 113.896 21.1591 112.078 21.1591C110.783 21.1591 109.845 21.7955 109.453 22.8125H109.351V21.2727H107.044V30H109.464V24.9545Z" fill="white"/>
</svg>
