<svg width="110" height="88" viewBox="0 0 110 88" fill="none" xmlns="http://www.w3.org/2000/svg">
<path d="M9.88408 12.5715L0 21.9461L21.8362 50.5715L27.7779 42.2576L32.4598 46.3235L50 19.2071L41.9446 12.5715H28.2488H9.88408Z" fill="#30498A"/>
<path fill-rule="evenodd" clip-rule="evenodd" d="M0 21.9461L9.88408 12.5715L14.528 31.1065L0 21.9461ZM28.2488 12.5715L14.528 31.1065L27.7779 42.2576L32.4598 46.3235L38.7412 20.2945L28.2488 12.5715Z" fill="#485F98"/>
<path fill-rule="evenodd" clip-rule="evenodd" d="M14.528 31.1065L21.8362 50.5715L27.7779 42.2576L14.528 31.1065ZM38.7412 20.2945L32.4598 46.3235L50 19.2071L38.7412 20.2945Z" fill="#18347D"/>
<path d="M31.4287 9.42857L21.563 0L12.5715 9.42857H31.4287Z" fill="#2998E5"/>
<path d="M37.7145 9.42854L31.1374 3.14282L25.1431 9.42854H37.7145Z" fill="#51AAE8"/>
<path d="M71.5027 81.0159C72.4279 81.0159 73.287 80.8576 74.08 80.541C74.8919 80.2244 75.685 79.7774 76.4591 79.2L77.592 80.8762C77.2333 81.1928 76.8084 81.4815 76.3175 81.7423C75.8455 82.003 75.3262 82.2265 74.7598 82.4127C74.2122 82.5804 73.6363 82.7107 73.0321 82.8038C72.4279 82.9156 71.8237 82.9715 71.2195 82.9715C69.8789 82.9715 68.6516 82.7945 67.5376 82.4407C66.4425 82.1054 65.5078 81.6119 64.7337 80.96C63.9595 80.2896 63.3553 79.4701 62.9211 78.5016C62.5057 77.5332 62.298 76.4157 62.298 75.1492C62.298 73.9014 62.4962 72.7933 62.8927 71.8248C63.3081 70.8377 63.8746 70.0182 64.5921 69.3664C65.3285 68.6959 66.197 68.1931 67.1977 67.8578C68.1984 67.504 69.303 67.327 70.5114 67.327C71.6443 67.327 72.7111 67.4946 73.7119 67.8299C74.7126 68.1651 75.5811 68.6587 76.3175 69.3105C77.0539 69.9437 77.6392 70.7166 78.0735 71.6292C78.5078 72.5418 78.7249 73.5755 78.7249 74.7302V76.6857H66.6313C66.8579 78.2316 67.396 79.3397 68.2457 80.0102C69.1142 80.6807 70.1999 81.0159 71.5027 81.0159ZM70.5114 69.1429C69.9639 69.1429 69.4541 69.2453 68.982 69.4502C68.51 69.6551 68.0946 69.981 67.7358 70.428C67.396 70.875 67.1128 71.4523 66.8862 72.16C66.6785 72.8678 66.5652 73.7245 66.5463 74.7302H74.4766C74.4766 73.7617 74.3633 72.9236 74.1367 72.2159C73.9101 71.5082 73.608 70.9308 73.2304 70.4838C72.8716 70.0182 72.4468 69.683 71.9559 69.4781C71.4838 69.2546 71.0024 69.1429 70.5114 69.1429Z" fill="#091620"/>
<path d="M93.167 69.8413H89.7684C88.4844 69.8413 87.5026 70.1859 86.8229 70.875C86.1431 71.5454 85.8032 72.5511 85.8032 73.8921V82.4127H81.8381V73.8921C81.8381 71.9924 82.4423 70.5211 83.6508 69.4781C84.8781 68.4165 86.634 67.8857 88.9187 67.8857H93.167V69.8413Z" fill="#091620"/>
<path d="M102.495 69.8413C101.135 69.8413 100.059 70.2604 99.2658 71.0984C98.4917 71.9179 98.1046 73.1751 98.1046 74.8699C98.1046 76.5647 98.4917 77.8311 99.2658 78.6692C100.059 79.4887 101.135 79.8984 102.495 79.8984H106.035V69.8413H102.495ZM110 82.1334C110 83.0087 109.83 83.8002 109.49 84.508C109.15 85.2343 108.641 85.8582 107.961 86.3797C107.3 86.9012 106.46 87.3016 105.44 87.581C104.439 87.8604 103.269 88 101.928 88C101.475 88 100.984 87.9628 100.455 87.8883C99.9456 87.8324 99.4263 87.73 98.8977 87.581C98.369 87.4506 97.8497 87.2737 97.3399 87.0502C96.849 86.8453 96.3959 86.6032 95.9805 86.3238L96.9717 84.6477C97.6137 85.076 98.3407 85.4113 99.1526 85.6534C99.9645 85.9141 100.795 86.0445 101.645 86.0445C103.061 86.0445 104.147 85.7279 104.902 85.0946C105.657 84.4614 106.035 83.4743 106.035 82.1334V81.854H102.495C101.192 81.854 100.002 81.6864 98.926 81.3511C97.8686 81.0159 96.9623 80.541 96.207 79.9264C95.4518 79.3118 94.8665 78.5761 94.4511 77.7194C94.0546 76.8627 93.8563 75.9128 93.8563 74.8699C93.8563 73.8269 94.0546 72.8771 94.4511 72.0204C94.8665 71.1636 95.4518 70.428 96.207 69.8134C96.9623 69.1988 97.8686 68.7238 98.926 68.3886C100.002 68.0534 101.192 67.8857 102.495 67.8857H110V82.1334Z" fill="#091620"/>
<path fill-rule="evenodd" clip-rule="evenodd" d="M43.6174 82.4127V62.8572H47.5826V67.8857H51.1228C52.4257 67.8857 53.6058 68.0534 54.6631 68.3886C55.7394 68.7238 56.6551 69.2081 57.4104 69.8413C58.1656 70.4745 58.7415 71.2381 59.138 72.1321C59.5534 73.0261 59.7611 74.0318 59.7611 75.1492C59.7611 76.2667 59.5534 77.2724 59.138 78.1664C58.7415 79.0604 58.1656 79.8239 57.4104 80.4572C56.6551 81.0904 55.7394 81.5746 54.6631 81.9099C53.6058 82.2451 52.4257 82.4127 51.1228 82.4127H43.6174ZM52.8788 80.1778C52.3501 80.3641 51.7648 80.4572 51.1228 80.4572H47.5826V69.8413H51.1228C51.7648 69.8413 52.3501 69.9437 52.8788 70.1486C53.4264 70.3348 53.889 70.6422 54.2666 71.0705C54.6631 71.4989 54.9652 72.0483 55.1729 72.7188C55.3995 73.3892 55.5128 74.1994 55.5128 75.1492C55.5128 76.0991 55.3995 76.9092 55.1729 77.5797C54.9652 78.2502 54.6631 78.7996 54.2666 79.228C53.889 79.6563 53.4264 79.9729 52.8788 80.1778Z" fill="#091620"/>
<path d="M4.10673 82.4127H0V62.8572H4.10673V82.4127Z" fill="#2998E5"/>
<path d="M16.0065 67.327C16.6107 67.327 17.2149 67.3829 17.8191 67.4946C18.4234 67.5878 18.9992 67.7274 19.5468 67.9137C20.1132 68.0813 20.6325 68.2955 21.1045 68.5562C21.5954 68.817 22.0203 69.1056 22.379 69.4223L21.2461 71.0984C20.472 70.5211 19.679 70.0741 18.8671 69.7575C18.074 69.4409 17.2149 69.2826 16.2897 69.2826C15.61 69.2826 14.9869 69.3943 14.4205 69.6178C13.854 69.8227 13.3631 70.1672 12.9477 70.6515C12.5323 71.1171 12.2019 71.7224 11.9564 72.4673C11.7299 73.2123 11.6166 74.1063 11.6166 75.1492C11.6166 76.1922 11.7299 77.0862 11.9564 77.8311C12.2019 78.5761 12.5418 79.1907 12.976 79.675C13.4103 80.1406 13.9295 80.4851 14.5338 80.7086C15.1568 80.9135 15.8366 81.0159 16.573 81.0159C17.4982 81.0159 18.3573 80.8576 19.1503 80.541C19.9622 80.2244 20.7552 79.7774 21.5294 79.2L22.6623 80.8762C22.3035 81.1928 21.8787 81.4815 21.3877 81.7423C20.9157 82.003 20.3965 82.2265 19.83 82.4127C19.2825 82.5804 18.7066 82.7107 18.1024 82.8038C17.4982 82.9156 16.8939 82.9715 16.2897 82.9715C14.9492 82.9715 13.7219 82.7945 12.6078 82.4407C11.5127 82.1054 10.5781 81.6119 9.80394 80.96C9.02979 80.2896 8.42558 79.4701 7.99131 78.5016C7.57592 77.5332 7.36822 76.4157 7.36822 75.1492C7.36822 73.9014 7.57592 72.7933 7.99131 71.8248C8.42558 70.8377 9.02035 70.0182 9.77561 69.3664C10.5309 68.6959 11.4372 68.1931 12.4946 67.8578C13.5519 67.504 14.7226 67.327 16.0065 67.327Z" fill="#2998E5"/>
<path d="M33.1404 81.0159C34.0656 81.0159 34.9247 80.8576 35.7177 80.541C36.5296 80.2244 37.3226 79.7774 38.0968 79.2L39.2297 80.8762C38.8709 81.1928 38.4461 81.4815 37.9552 81.7423C37.4831 82.003 36.9639 82.2265 36.3975 82.4127C35.8499 82.5804 35.274 82.7107 34.6698 82.8038C34.0656 82.9156 33.4614 82.9715 32.8572 82.9715C31.5166 82.9715 30.2893 82.7945 29.1753 82.4407C28.0801 82.1054 27.1455 81.6119 26.3714 80.96C25.5972 80.2896 24.993 79.4701 24.5587 78.5016C24.1433 77.5332 23.9356 76.4157 23.9356 75.1492C23.9356 73.9014 24.1339 72.7933 24.5304 71.8248C24.9458 70.8377 25.5123 70.0182 26.2298 69.3664C26.9661 68.6959 27.8347 68.1931 28.8354 67.8578C29.8361 67.504 30.9407 67.327 32.1491 67.327C33.282 67.327 34.3488 67.4946 35.3495 67.8299C36.3502 68.1651 37.2188 68.6587 37.9552 69.3105C38.6916 69.9437 39.2769 70.7166 39.7112 71.6292C40.1454 72.5418 40.3626 73.5755 40.3626 74.7302V76.6857H28.269C28.4955 78.2316 29.0337 79.3397 29.8833 80.0102C30.7519 80.6807 31.8376 81.0159 33.1404 81.0159ZM32.1491 69.1429C31.6015 69.1429 31.0917 69.2453 30.6197 69.4502C30.1477 69.6551 29.7323 69.981 29.3735 70.428C29.0337 70.875 28.7504 71.4523 28.5239 72.16C28.3162 72.8678 28.2029 73.7245 28.184 74.7302H36.1142C36.1142 73.7617 36.0009 72.9236 35.7744 72.2159C35.5478 71.5082 35.2457 70.9308 34.868 70.4838C34.5093 70.0182 34.0845 69.683 33.5935 69.4781C33.1215 69.2546 32.64 69.1429 32.1491 69.1429Z" fill="#2998E5"/>
</svg>
